<svg xmlns="http://www.w3.org/2000/svg" width="130" height="113" viewBox="0 0 130 113">
  <path id="Shape" d="M101.74,113a28.635,28.635,0,0,1-12.505-2.787,34.02,34.02,0,0,1-10.712-8.369A38.487,38.487,0,0,1,71.159,89.5a43.153,43.153,0,0,1-2.454-14.739,77.067,77.067,0,0,1,3.262-22.593,71.508,71.508,0,0,1,9.786-19.992A87.67,87.67,0,0,1,98.062,14.784,129.856,129.856,0,0,1,120.893,0l9.1,17.653H130a91.536,91.536,0,0,0-12.779,7.669,52.254,52.254,0,0,0-9.13,8.319,32.314,32.314,0,0,0-5.479,8.966,26.142,26.142,0,0,0-1.827,9.608,33.872,33.872,0,0,1,11.372,3.335,31.964,31.964,0,0,1,9.217,7.077,31.542,31.542,0,0,1,6.1,9.656,30.1,30.1,0,0,1,2.033,11.055,32.772,32.772,0,0,1-1.973,11.525,29.117,29.117,0,0,1-5.927,9.557,26.254,26.254,0,0,1-8.916,6.436A27.48,27.48,0,0,1,101.74,113Zm-68.95,0a28.436,28.436,0,0,1-12.472-2.787,33.49,33.49,0,0,1-10.623-8.369A38.593,38.593,0,0,1,2.424,89.5,43.645,43.645,0,0,1,0,74.758,77.4,77.4,0,0,1,3.247,52.164a71.64,71.64,0,0,1,9.741-19.992A87.5,87.5,0,0,1,29.222,14.784,129.2,129.2,0,0,1,51.951,0l9.337,17.653A92.338,92.338,0,0,0,48.4,25.322a52.465,52.465,0,0,0-9.2,8.319,32.254,32.254,0,0,0-5.519,8.966,25.98,25.98,0,0,0-1.839,9.608A34.615,34.615,0,0,1,43.391,55.55a31.686,31.686,0,0,1,9.278,7.077,31.548,31.548,0,0,1,6.1,9.656,30.1,30.1,0,0,1,2.033,11.055,32.316,32.316,0,0,1-2,11.525,29.06,29.06,0,0,1-6.019,9.557,26.787,26.787,0,0,1-9.005,6.436A27.7,27.7,0,0,1,32.79,113Z" transform="translate(0 0)" fill="#2ec5ce"/>
</svg>
